<svg xmlns="http://www.w3.org/2000/svg" xmlns:xlink="http://www.w3.org/1999/xlink" fill="none" version="1.1" width="216.6761474609375" height="216.67617797851562" viewBox="0 0 216.6761474609375 216.67617797851562"><defs><filter id="master_svg0_35_2891" filterUnits="objectBoundingBox" color-interpolation-filters="sRGB" x="-20" y="-16" width="226.6761474609375" height="226.67620849609375"><feFlood flood-opacity="0" result="BackgroundImageFix"/><feColorMatrix in="SourceAlpha" type="matrix" values="0 0 0 0 0 0 0 0 0 0 0 0 0 0 0 0 0 0 127 0"/><feOffset dy="4" dx="0"/><feGaussianBlur stdDeviation="5"/><feColorMatrix type="matrix" values="0 0 0 0 0 0 0 0 0 0 0 0 0 0 0 0 0 0 0.30000001192092896 0"/><feBlend mode="normal" in2="BackgroundImageFix" result="effect1_dropShadow"/><feBlend mode="normal" in="SourceGraphic" in2="effect1_dropShadow" result="shape"/></filter><clipPath id="master_svg1_35_2892"><rect x="15" y="104.33809661865234" width="132" height="132" rx="10"/></clipPath><clipPath id="master_svg2_35_2893"><rect x="21" y="110.33809661865234" width="120" height="120" rx="5"/></clipPath><clipPath id="master_svg3_35_2908"><rect x="27" y="116.33809661865234" width="32" height="32" rx="2.5"/></clipPath><clipPath id="master_svg4_35_2901"><rect x="65" y="116.33809661865234" width="32" height="32" rx="2.5"/></clipPath><clipPath id="master_svg5_35_2902"><rect x="81" y="120.36251068115234" width="16" height="16" rx="0"/></clipPath><clipPath id="master_svg6_35_2900"><rect x="103" y="116.33809661865234" width="32" height="32" rx="2.5"/></clipPath><clipPath id="master_svg7_35_2905"><rect x="27" y="154.33809661865234" width="32" height="32" rx="2.5"/></clipPath><clipPath id="master_svg8_35_2906"><rect x="42.816162109375" y="158.54622650146484" width="16" height="16" rx="0"/></clipPath><clipPath id="master_svg9_35_2897"><rect x="103" y="154.33809661865234" width="32" height="32" rx="2.5"/></clipPath><clipPath id="master_svga_35_2898"><rect x="119.1837158203125" y="158.54622650146484" width="16" height="16" rx="0"/></clipPath><clipPath id="master_svgb_35_2912"><rect x="65" y="154.33809661865234" width="32" height="32" rx="2.5"/></clipPath><clipPath id="master_svgc_35_2911"><rect x="27" y="192.33809661865234" width="32" height="32" rx="2.5"/></clipPath><clipPath id="master_svgd_35_2894"><rect x="65" y="192.33809661865234" width="32" height="32" rx="2.5"/></clipPath><clipPath id="master_svge_35_2895"><rect x="80.9998779296875" y="197.02437591552734" width="16" height="16" rx="0"/></clipPath><clipPath id="master_svgf_35_2904"><rect x="103" y="192.33809661865234" width="32" height="32" rx="2.5"/></clipPath><clipPath id="master_svgg_35_2910"><rect x="27" y="186.33809661865234" width="70" height="6" rx="2.5"/></clipPath><clipPath id="master_svgh_35_2909"><rect x="65" y="148.33809661865234" width="70" height="6" rx="2.5"/></clipPath></defs><g filter="url(#master_svg0_35_2891)"><g transform="matrix(0.7071067690849304,-0.7071067690849304,0.7071067690849304,0.7071067690849304,-69.38477592876052,41.16652376243974)" clip-path="url(#master_svg1_35_2892)"><rect x="15" y="104.33809661865234" width="132" height="132" rx="10" fill="#6B3136" fill-opacity="1"/><g clip-path="url(#master_svg2_35_2893)"><rect x="21" y="110.33809661865234" width="120" height="120" rx="5" fill="#FFFFF8" fill-opacity="1"/><g clip-path="url(#master_svg3_35_2908)"><rect x="27" y="116.33809661865234" width="32" height="32" rx="2.5" fill="#EDEDED" fill-opacity="1"/></g><g clip-path="url(#master_svg4_35_2901)"><rect x="65" y="116.33809661865234" width="32" height="32" rx="2.5" fill="#EDEDED" fill-opacity="1"/><g transform="matrix(0.7071067690849304,0.7071067690849304,-0.7071067690849304,0.7071067690849304,108.8334977508207,-22.022283661427082)" clip-path="url(#master_svg5_35_2902)"><g><path d="M89.00001701171875,120.36251068115234C86.79135701171874,120.36251068115234,85.00001701171875,122.15384068115235,85.00001701171875,124.36251068115234C85.00001701171875,126.34384068115234,86.44268701171875,127.98451068115234,88.33335701171875,128.30251068115234L88.33335701171875,133.69581068115235L89.66668701171875,133.69581068115235L89.66668701171875,128.30318068115236C91.55735701171875,127.98518068115234,93.00001701171875,126.34451068115234,93.00001701171875,124.36318068115234C93.00001701171875,122.15384068115235,91.20868701171875,120.36251099904334,89.00001701171875,120.36251068115234ZM88.52868701171874,123.36784068115234C88.16268701171875,123.80118068115235,87.58001701171875,123.90118068115234,87.22668701171875,123.58984068115234C86.87335701171875,123.27851068115234,86.88268701171874,122.67518068115234,87.24935701171874,122.24184068115234C87.61468701171874,121.80851068115234,88.19735701171875,121.70918068115235,88.55068701171875,122.01984068115235C88.90401701171875,122.33118068115235,88.89401701171874,122.93451068115235,88.52868701171874,123.36784068115234ZM94.33338701171876,133.69581068115235C94.33338701171876,135.16851068115236,91.94601701171875,136.36251068115234,89.00001701171875,136.36251068115234C86.05401701171876,136.36251068115234,83.66668701171875,135.16851068115236,83.66668701171875,133.69581068115235C83.66668701171875,132.57721068115234,85.04601701171875,131.62051068115235,87.00001701171875,131.22451068115234L87.00001701171875,132.59251068115233L86.70935701171875,132.66321068115235C85.57935701171876,132.99051068115233,85.03201701171875,133.34521068115234,85.03201701171875,133.69581068115235C85.03201701171875,134.04651068115234,85.57868701171876,134.40121068115235,86.70935701171875,134.72781068115233C88.10135701171875,135.12981068115235,89.89401701171874,135.13121068115234,91.29201701171876,134.72721068115234C92.42935701171875,134.39851068115235,92.95601701171876,134.04251068115235,92.96335701171876,133.69581068115235C92.95601701171876,133.34921068115236,92.42935701171875,132.99321068115233,91.29201701171876,132.66451068115234L91.00001701171875,132.59321068115236L91.00001701171875,131.22521068115233C92.95401701171875,131.62051068115235,94.33338701171876,132.57721068115234,94.33338701171876,133.69581068115235Z" fill="#0000FF" fill-opacity="1" style="mix-blend-mode:passthrough"/></g></g></g><g clip-path="url(#master_svg6_35_2900)"><rect x="103" y="116.33809661865234" width="32" height="32" rx="2.5" fill="#EDEDED" fill-opacity="1"/></g><g clip-path="url(#master_svg7_35_2905)"><rect x="27" y="154.33809661865234" width="32" height="32" rx="2.5" fill="#EDEDED" fill-opacity="1"/><g transform="matrix(0.7071067690849304,0.7071067690849304,-0.7071067690849304,0.7071067690849304,124.6496740276566,16.16151847562969)" clip-path="url(#master_svg8_35_2906)"><g><path d="M50.816179121093754,158.54622650146484C48.60751912109375,158.54622650146484,46.81617912109375,160.33755650146483,46.81617912109375,162.54622650146484C46.81617912109375,164.52755650146486,48.258849121093746,166.16822650146486,50.149519121093746,166.48622650146484L50.149519121093746,171.87952650146485L51.48284912109375,171.87952650146485L51.48284912109375,166.48689650146486C53.37351912109375,166.16889650146484,54.816179121093754,164.52822650146484,54.816179121093754,162.54689650146486C54.816179121093754,160.33755650146483,53.02484912109375,158.54622681935584,50.816179121093754,158.54622650146484ZM50.34484912109375,161.55155650146483C49.97884912109375,161.98489650146485,49.39617912109375,162.08489650146484,49.04284912109375,161.77355650146484C48.68951912109375,161.46222650146484,48.69884912109375,160.85889650146484,49.06551912109375,160.42555650146485C49.43084912109375,159.99222650146484,50.01351912109375,159.89289650146483,50.36684912109375,160.20355650146485C50.72017912109375,160.51489650146485,50.71017912109375,161.11822650146485,50.34484912109375,161.55155650146483ZM56.14954912109375,171.87952650146485C56.14954912109375,173.35222650146486,53.76217912109375,174.54622650146484,50.816179121093754,174.54622650146484C47.87017912109375,174.54622650146484,45.48284912109375,173.35222650146486,45.48284912109375,171.87952650146485C45.48284912109375,170.76092650146484,46.86217912109375,169.80422650146485,48.816179121093754,169.40822650146484L48.816179121093754,170.77622650146483L48.52551912109375,170.84692650146485C47.39551912109375,171.17422650146483,46.84817912109375,171.52892650146484,46.84817912109375,171.87952650146485C46.84817912109375,172.23022650146484,47.39484912109375,172.58492650146485,48.52551912109375,172.91152650146483C49.91751912109375,173.31352650146485,51.71017912109375,173.31492650146484,53.10817912109375,172.91092650146484C54.24551912109375,172.58222650146485,54.77217912109375,172.22622650146485,54.77951912109375,171.87952650146485C54.77217912109375,171.53292650146486,54.24551912109375,171.17692650146483,53.10817912109375,170.84822650146484L52.816179121093754,170.77692650146486L52.816179121093754,169.40892650146483C54.77017912109375,169.80422650146485,56.14954912109375,170.76092650146484,56.14954912109375,171.87952650146485Z" fill="#FF0000" fill-opacity="1" style="mix-blend-mode:passthrough"/></g></g></g><g clip-path="url(#master_svg9_35_2897)"><rect x="103" y="154.33809661865234" width="32" height="32" rx="2.5" fill="#EDEDED" fill-opacity="1"/><g transform="matrix(0.7071067690849304,0.7071067690849304,-0.7071067690849304,0.7071067690849304,147.0172135711332,-37.83849569183121)" clip-path="url(#master_svga_35_2898)"><g><path d="M127.18373283203125,158.54622650146484C124.97507283203124,158.54622650146484,123.18373283203125,160.33755650146483,123.18373283203125,162.54622650146484C123.18373283203125,164.52755650146486,124.62640283203125,166.16822650146486,126.51707283203125,166.48622650146484L126.51707283203125,171.87952650146485L127.85040283203125,171.87952650146485L127.85040283203125,166.48689650146486C129.74107283203125,166.16889650146484,131.18373283203124,164.52822650146484,131.18373283203124,162.54689650146486C131.18373283203124,160.33755650146483,129.39240283203125,158.54622681935584,127.18373283203125,158.54622650146484ZM126.71240283203124,161.55155650146483C126.34640283203125,161.98489650146485,125.76373283203125,162.08489650146484,125.41040283203125,161.77355650146484C125.05707283203125,161.46222650146484,125.06640283203124,160.85889650146484,125.43307283203124,160.42555650146485C125.79840283203124,159.99222650146484,126.38107283203125,159.89289650146483,126.73440283203125,160.20355650146485C127.08773283203125,160.51489650146485,127.07773283203124,161.11822650146485,126.71240283203124,161.55155650146483ZM132.51710283203124,171.87952650146485C132.51710283203124,173.35222650146486,130.12973283203124,174.54622650146484,127.18373283203125,174.54622650146484C124.23773283203126,174.54622650146484,121.85040283203125,173.35222650146486,121.85040283203125,171.87952650146485C121.85040283203125,170.76092650146484,123.22973283203125,169.80422650146485,125.18373283203125,169.40822650146484L125.18373283203125,170.77622650146483L124.89307283203125,170.84692650146485C123.76307283203126,171.17422650146483,123.21573283203125,171.52892650146484,123.21573283203125,171.87952650146485C123.21573283203125,172.23022650146484,123.76240283203126,172.58492650146485,124.89307283203125,172.91152650146483C126.28507283203125,173.31352650146485,128.07773283203124,173.31492650146484,129.47573283203124,172.91092650146484C130.61307283203126,172.58222650146485,131.13973283203126,172.22622650146485,131.14707283203126,171.87952650146485C131.13973283203126,171.53292650146486,130.61307283203126,171.17692650146483,129.47573283203124,170.84822650146484L129.18373283203124,170.77692650146486L129.18373283203124,169.40892650146483C131.13773283203125,169.80422650146485,132.51710283203124,170.76092650146484,132.51710283203124,171.87952650146485Z" fill="#00FF00" fill-opacity="1" style="mix-blend-mode:passthrough"/></g></g></g><g clip-path="url(#master_svgb_35_2912)"><rect x="65" y="154.33809661865234" width="32" height="32" rx="2.5" fill="#EDEDED" fill-opacity="1"/></g><g clip-path="url(#master_svgc_35_2911)"><rect x="27" y="192.33809661865234" width="32" height="32" rx="2.5" fill="#EDEDED" fill-opacity="1"/></g><g clip-path="url(#master_svgd_35_2894)"><rect x="65" y="192.33809661865234" width="32" height="32" rx="2.5" fill="#EDEDED" fill-opacity="1"/><g transform="matrix(0.7071067094802856,0.7071067094802856,-0.7071067094802856,0.7071067094802856,163.04157891955674,0.43156062332582223)" clip-path="url(#master_svge_35_2895)"><g><path d="M88.99989494140625,197.02437591552734C86.79123494140624,197.02437591552734,84.99989494140625,198.81570591552733,84.99989494140625,201.02437591552734C84.99989494140625,203.00570591552736,86.44256494140625,204.64637591552736,88.33323494140625,204.96437591552734L88.33323494140625,210.35767591552735L89.66656494140625,210.35767591552735L89.66656494140625,204.96504591552736C91.55723494140625,204.64704591552734,92.99989494140625,203.00637591552734,92.99989494140625,201.02504591552736C92.99989494140625,198.81570591552733,91.20856494140625,197.02437623341834,88.99989494140625,197.02437591552734ZM88.52856494140624,200.02970591552733C88.16256494140625,200.46304591552735,87.57989494140625,200.56304591552734,87.22656494140625,200.25170591552734C86.87323494140625,199.94037591552734,86.88256494140624,199.33704591552734,87.24923494140624,198.90370591552735C87.61456494140624,198.47037591552734,88.19723494140625,198.37104591552733,88.55056494140625,198.68170591552735C88.90389494140625,198.99304591552735,88.89389494140624,199.59637591552735,88.52856494140624,200.02970591552733ZM94.33326494140626,210.35767591552735C94.33326494140626,211.83037591552736,91.94589494140625,213.02437591552734,88.99989494140625,213.02437591552734C86.05389494140626,213.02437591552734,83.66656494140625,211.83037591552736,83.66656494140625,210.35767591552735C83.66656494140625,209.23907591552734,85.04589494140625,208.28237591552735,86.99989494140625,207.88637591552734L86.99989494140625,209.25437591552733L86.70923494140625,209.32507591552735C85.57923494140626,209.65237591552733,85.03189494140625,210.00707591552734,85.03189494140625,210.35767591552735C85.03189494140625,210.70837591552734,85.57856494140626,211.06307591552735,86.70923494140625,211.38967591552733C88.10123494140625,211.79167591552735,89.89389494140624,211.79307591552734,91.29189494140626,211.38907591552734C92.42923494140625,211.06037591552735,92.95589494140626,210.70437591552735,92.96323494140626,210.35767591552735C92.95589494140626,210.01107591552736,92.42923494140625,209.65507591552733,91.29189494140626,209.32637591552734L90.99989494140625,209.25507591552736L90.99989494140625,207.88707591552733C92.95389494140625,208.28237591552735,94.33326494140626,209.23907591552734,94.33326494140626,210.35767591552735Z" fill="#000000" fill-opacity="1" style="mix-blend-mode:passthrough"/></g></g></g><g clip-path="url(#master_svgf_35_2904)"><rect x="103" y="192.33809661865234" width="32" height="32" rx="2.5" fill="#EDEDED" fill-opacity="1"/></g><g clip-path="url(#master_svgg_35_2910)"><rect x="27" y="186.33809661865234" width="70" height="6" rx="2.5" fill="#FF7F50" fill-opacity="1"/></g><g clip-path="url(#master_svgh_35_2909)"><rect x="65" y="148.33809661865234" width="70" height="6" rx="2.5" fill="#FF7F50" fill-opacity="1"/></g></g></g></g></svg>