<svg xmlns="http://www.w3.org/2000/svg"
    xmlns:xlink="http://www.w3.org/1999/xlink" fill="none" version="1.1" width="216.67620849609375" height="216.67617797851562" viewBox="0 0 216.67620849609375 216.67617797851562">
    <defs>
        <clipPath id="master_svg1_35_2794">
            <rect x="15" y="104.33809661865234" width="132" height="132" rx="10"/>
        </clipPath>
        <clipPath id="master_svg2_35_2795">
            <rect x="21" y="110.33809661865234" width="120" height="120" rx="5"/>
        </clipPath>
        <clipPath id="master_svg3_35_2804">
            <rect x="27" y="116.33809661865234" width="32" height="32" rx="2.5"/>
        </clipPath>
        <clipPath id="master_svg4_35_2808">
            <rect x="65" y="116.33809661865234" width="32" height="32" rx="2.5"/>
        </clipPath>
        <clipPath id="master_svg5_35_2809">
            <rect x="81" y="121.02413177490234" width="16" height="16" rx="0"/>
        </clipPath>
        <clipPath id="master_svg6_35_2806">
            <rect x="103" y="116.33809661865234" width="32" height="32" rx="2.5"/>
        </clipPath>
        <clipPath id="master_svg7_35_2802">
            <rect x="27" y="154.33809661865234" width="32" height="32" rx="2.5"/>
        </clipPath>
        <clipPath id="master_svg8_35_2801">
            <rect x="103" y="154.33809661865234" width="32" height="32" rx="2.5"/>
        </clipPath>
        <clipPath id="master_svg9_35_2800">
            <rect x="65" y="154.33809661865234" width="32" height="32" rx="2.5"/>
        </clipPath>
        <clipPath id="master_svga_35_2805">
            <rect x="27" y="192.33809661865234" width="32" height="32" rx="2.5"/>
        </clipPath>
        <clipPath id="master_svgb_35_2797">
            <rect x="65" y="192.33809661865234" width="32" height="32" rx="2.5"/>
        </clipPath>
        <clipPath id="master_svgc_35_2798">
            <rect x="80.9998779296875" y="197.02425384521484" width="16" height="16" rx="0"/>
        </clipPath>
        <clipPath id="master_svgd_35_2807">
            <rect x="103" y="192.33809661865234" width="32" height="32" rx="2.5"/>
        </clipPath>
        <clipPath id="master_svge_35_2803">
            <rect x="27" y="186.33809661865234" width="70" height="6" rx="2.5"/>
        </clipPath>
        <clipPath id="master_svgf_35_2796">
            <rect x="65" y="148.33809661865234" width="70" height="6" rx="2.5"/>
        </clipPath>
    </defs>
    <g>
        <g transform="matrix(0.7071067690849304,-0.7071067690849304,0.7071067690849304,0.7071067690849304,-69.38477592876052,41.16652376243974)" clip-path="url(#master_svg1_35_2794)">
            <rect x="15" y="104.33809661865234" width="132" height="132" rx="10" fill="#6B3136" fill-opacity="1"/>
            <g clip-path="url(#master_svg2_35_2795)">
                <rect x="21" y="110.33809661865234" width="120" height="120" rx="5" fill="#FFFFF8" fill-opacity="1"/>
                <g clip-path="url(#master_svg3_35_2804)">
                    <rect x="27" y="116.33809661865234" width="32" height="32" rx="2.5" fill="#EDEDED" fill-opacity="1"/>
                </g>
                <g clip-path="url(#master_svg4_35_2808)">
                    <rect x="65" y="116.33809661865234" width="32" height="32" rx="2.5" fill="#EDEDED" fill-opacity="1"/>
                    <g transform="matrix(0.7071067094802856,0.7071067094802856,-0.7071067094802856,0.7071067094802856,109.30133211915654,-21.82848728006047)" clip-path="url(#master_svg5_35_2809)">
                        <g>
                            <path d="M92.99998649414063,125.02413177490234C92.99998649414063,127.00546177490234,91.55732649414063,128.64613177490236,89.66665649414062,128.96413177490234L89.66665649414062,134.35743177490235L88.33332649414062,134.35743177490235L88.33332649414062,128.96480177490236C86.44265649414062,128.64680177490234,84.99998649414063,127.00613177490234,84.99998649414063,125.02413177490234C84.99998649414063,122.81480177490235,86.79132649414062,121.02413177490234,88.99998649414063,121.02413177490234C91.20865649414063,121.02413177490234,92.99998649414063,122.81546177490235,92.99998649414063,125.02413177490234ZM91.66665649414062,125.02413177490234C91.66665649414062,123.55346177490235,90.47065649414063,122.35746177490235,88.99998649414063,122.35746177490235C87.52932649414062,122.35746177490235,86.33332649414062,123.55346177490235,86.33332649414062,125.02413177490234C86.33332649414062,126.49480177490234,87.52932649414062,127.69080177490234,88.99998649414063,127.69080177490234C90.47065649414063,127.69080177490234,91.66665649414062,126.49480177490234,91.66665649414062,125.02413177490234ZM87.92132649414063,126.42280177490234C89.48065649414062,127.64946177490235,91.62998649414062,125.94146177490234,90.49332649414063,124.06346177490235C90.70198649414063,125.55480177490234,89.18932649414063,126.75013177490234,87.92132649414063,126.42280177490234ZM90.99998649414063,131.88613177490234L90.99998649414063,133.25413177490233L91.29198649414063,133.32543177490234C92.42932649414062,133.65413177490234,92.95599649414062,134.01013177490233,92.96332649414063,134.35683177490233C92.95599649414062,134.70343177490236,92.42932649414062,135.05943177490235,91.29198649414063,135.38813177490235C89.89398649414062,135.79213177490234,88.10132649414062,135.79083177490236,86.70932649414063,135.38883177490234C85.57932649414063,135.06283177490235,85.03265649414062,134.70813177490234,85.03265649414062,134.35743177490235C85.03265649414062,134.00683177490234,85.57932649414063,133.65213177490233,86.70998649414062,133.32543177490234L87.00065649414063,133.25483177490236L87.00065649414063,131.88683177490233C85.04598649414062,132.28213177490235,83.66665649414062,133.23883177490234,83.66665649414062,134.35743177490235C83.66665649414062,135.83013177490236,86.05398649414063,137.02413177490234,88.99998649414063,137.02413177490234C91.94598649414063,137.02413177490234,94.33335649414063,135.83013177490236,94.33335649414063,134.35743177490235C94.33335649414063,133.23883177490234,92.95398649414062,132.28213177490235,90.99998649414063,131.88613177490234Z" fill="#000000" fill-opacity="1" style="mix-blend-mode:passthrough"/>
                        </g>
                    </g>
                </g>
                <g clip-path="url(#master_svg6_35_2806)">
                    <rect x="103" y="116.33809661865234" width="32" height="32" rx="2.5" fill="#EDEDED" fill-opacity="1"/>
                </g>
                <g clip-path="url(#master_svg7_35_2802)">
                    <rect x="27" y="154.33809661865234" width="32" height="32" rx="2.5" fill="#EDEDED" fill-opacity="1"/>
                </g>
                <g clip-path="url(#master_svg8_35_2801)">
                    <rect x="103" y="154.33809661865234" width="32" height="32" rx="2.5" fill="#EDEDED" fill-opacity="1"/>
                </g>
                <g clip-path="url(#master_svg9_35_2800)">
                    <rect x="65" y="154.33809661865234" width="32" height="32" rx="2.5" fill="#EDEDED" fill-opacity="1"/>
                </g>
                <g clip-path="url(#master_svga_35_2805)">
                    <rect x="27" y="192.33809661865234" width="32" height="32" rx="2.5" fill="#EDEDED" fill-opacity="1"/>
                </g>
                <g clip-path="url(#master_svgb_35_2797)">
                    <rect x="65" y="192.33809661865234" width="32" height="32" rx="2.5" fill="#EDEDED" fill-opacity="1"/>
                    <g transform="matrix(0.7071067094802856,0.7071067094802856,-0.7071067094802856,0.7071067094802856,163.04149260281974,0.43152486975031934)" clip-path="url(#master_svgc_35_2798)">
                        <g>
                            <path d="M88.99989494140625,197.02425384521484C86.79123494140624,197.02425384521484,84.99989494140625,198.81558384521483,84.99989494140625,201.02425384521484C84.99989494140625,203.00558384521486,86.44256494140625,204.64625384521486,88.33323494140625,204.96425384521484L88.33323494140625,210.35755384521485L89.66656494140625,210.35755384521485L89.66656494140625,204.96492384521486C91.55723494140625,204.64692384521484,92.99989494140625,203.00625384521484,92.99989494140625,201.02492384521486C92.99989494140625,198.81558384521483,91.20856494140625,197.02425416310584,88.99989494140625,197.02425384521484ZM88.52856494140624,200.02958384521483C88.16256494140625,200.46292384521485,87.57989494140625,200.56292384521484,87.22656494140625,200.25158384521484C86.87323494140625,199.94025384521484,86.88256494140624,199.33692384521484,87.24923494140624,198.90358384521485C87.61456494140624,198.47025384521484,88.19723494140625,198.37092384521483,88.55056494140625,198.68158384521485C88.90389494140625,198.99292384521485,88.89389494140624,199.59625384521485,88.52856494140624,200.02958384521483ZM94.33326494140626,210.35755384521485C94.33326494140626,211.83025384521486,91.94589494140625,213.02425384521484,88.99989494140625,213.02425384521484C86.05389494140626,213.02425384521484,83.66656494140625,211.83025384521486,83.66656494140625,210.35755384521485C83.66656494140625,209.23895384521484,85.04589494140625,208.28225384521485,86.99989494140625,207.88625384521484L86.99989494140625,209.25425384521483L86.70923494140625,209.32495384521485C85.57923494140626,209.65225384521483,85.03189494140625,210.00695384521484,85.03189494140625,210.35755384521485C85.03189494140625,210.70825384521484,85.57856494140626,211.06295384521485,86.70923494140625,211.38955384521483C88.10123494140625,211.79155384521485,89.89389494140624,211.79295384521484,91.29189494140626,211.38895384521484C92.42923494140625,211.06025384521485,92.95589494140626,210.70425384521485,92.96323494140626,210.35755384521485C92.95589494140626,210.01095384521486,92.42923494140625,209.65495384521483,91.29189494140626,209.32625384521484L90.99989494140625,209.25495384521486L90.99989494140625,207.88695384521483C92.95389494140625,208.28225384521485,94.33326494140626,209.23895384521484,94.33326494140626,210.35755384521485Z" fill="#000000" fill-opacity="1" style="mix-blend-mode:passthrough"/>
                        </g>
                    </g>
                </g>
                <g clip-path="url(#master_svgd_35_2807)">
                    <rect x="103" y="192.33809661865234" width="32" height="32" rx="2.5" fill="#EDEDED" fill-opacity="1"/>
                </g>
                <g clip-path="url(#master_svge_35_2803)">
                    <rect x="27" y="186.33809661865234" width="70" height="6" rx="2.5" fill="#FF7F50" fill-opacity="1"/>
                </g>
                <g clip-path="url(#master_svgf_35_2796)">
                    <rect x="65" y="148.33809661865234" width="70" height="6" rx="2.5" fill="#FF7F50" fill-opacity="1"/>
                </g>
            </g>
        </g>
    </g>
</svg>